<svg width="196" height="64" viewBox="0 0 196 64" fill="none" xmlns="http://www.w3.org/2000/svg">
<path fill-rule="evenodd" clip-rule="evenodd" d="M75.6889 -6.10352e-05H71.8403V63.9999H75.6889V-6.10352e-05ZM85.489 8.63979V25.5599H89.3806V11.8304H97.0188V25.5599H100.91V8.63979H85.489ZM108.755 18.5018V22.4176H117.964V25.5599H104.863V8.63979H117.65V11.7821H108.755V15.4562H116.611V18.5018H108.755ZM120.885 8.63979V25.5599H124.801V20.8948H128.209C129.724 20.8948 131.029 20.6531 132.125 20.1697C133.221 19.6701 134.067 18.9611 134.663 18.0426C135.259 17.124 135.557 16.0363 135.557 14.7794C135.557 13.5063 135.259 12.4106 134.663 11.492C134.067 10.5735 133.221 9.87255 132.125 9.38911C131.029 8.88957 129.724 8.63979 128.209 8.63979H120.885ZM124.801 17.7042H127.992C129.2 17.7042 130.103 17.4463 130.699 16.9307C131.295 16.415 131.593 15.6979 131.593 14.7794C131.593 13.8448 131.295 13.1196 130.699 12.6039C130.103 12.0883 129.2 11.8304 127.992 11.8304H124.801V17.7042ZM137.899 8.63979V25.5599H146.238C148.381 25.5599 150.009 25.141 151.121 24.303C152.249 23.4489 152.813 22.2806 152.813 20.7981C152.813 19.3639 152.289 18.2682 151.242 17.5108C150.79 17.1843 150.259 16.9282 149.649 16.7424C149.942 16.6023 150.215 16.4395 150.468 16.2539C151.499 15.4804 152.015 14.4007 152.015 13.0149C152.015 11.6129 151.467 10.5332 150.371 9.77586C149.276 9.01848 147.745 8.63979 145.779 8.63979H137.899ZM146.093 22.6593H141.791V18.381H146.093C146.996 18.381 147.68 18.5582 148.148 18.9127C148.615 19.2511 148.849 19.7749 148.849 20.4839C148.849 21.2252 148.615 21.773 148.148 22.1276C147.68 22.4821 146.996 22.6593 146.093 22.6593ZM145.44 15.6496H141.791V11.5404H145.44C146.295 11.5404 146.939 11.7176 147.374 12.0722C147.809 12.4106 148.027 12.9182 148.027 13.595C148.027 14.2718 147.809 14.7874 147.374 15.142C146.939 15.4804 146.295 15.6496 145.44 15.6496ZM168.6 15.5771C167.488 14.6585 165.909 14.1993 163.862 14.1993H159.56V8.63979H155.668V25.5599H163.306C165.482 25.5599 167.182 25.0604 168.406 24.0613C169.647 23.0622 170.268 21.5958 170.268 19.6621C170.268 17.8411 169.712 16.4795 168.6 15.5771ZM165.457 21.91C164.877 22.4096 164.088 22.6593 163.089 22.6593H159.56V17.0999H163.089C164.104 17.0999 164.893 17.3093 165.457 17.7283C166.038 18.1312 166.328 18.7999 166.328 19.7346C166.328 20.6853 166.038 21.4105 165.457 21.91ZM176.31 8.63979H172.419V25.5599H176.31V8.63979ZM184.174 8.63979H180.282V25.5599H183.981L192.054 14.5618V25.5599H195.921V8.63979H192.247L184.174 19.6621V8.63979ZM184.537 6.58521C185.294 7.22978 186.478 7.55207 188.09 7.55207C189.685 7.55207 190.861 7.22978 191.619 6.58521C192.376 5.94063 192.763 5.03016 192.779 3.85381H190.096C190.08 4.43393 189.903 4.87708 189.564 5.18325C189.226 5.47331 188.734 5.61834 188.09 5.61834C187.429 5.61834 186.93 5.47331 186.591 5.18325C186.269 4.87708 186.1 4.43393 186.084 3.85381H183.4C183.417 5.03016 183.795 5.94063 184.537 6.58521ZM89.8399 54.2215C90.9679 54.6405 92.1845 54.85 93.4898 54.85C94.9723 54.85 96.3018 54.5922 97.4781 54.0765C98.6706 53.5608 99.6697 52.8115 100.475 51.8285L97.9615 49.5081C97.3814 50.1849 96.7368 50.6925 96.0278 51.0309C95.3188 51.3532 94.5453 51.5143 93.7073 51.5143C92.9177 51.5143 92.1926 51.3854 91.5319 51.1276C90.8712 50.8697 90.2991 50.4991 89.8157 50.0157C89.3323 49.5322 88.9536 48.9602 88.6796 48.2995C88.4218 47.6388 88.2929 46.9056 88.2929 46.0999C88.2929 45.2941 88.4218 44.5609 88.6796 43.9002C88.9536 43.2396 89.3323 42.6675 89.8157 42.1841C90.2991 41.7006 90.8712 41.33 91.5319 41.0722C92.1926 40.8143 92.9177 40.6854 93.7073 40.6854C94.5453 40.6854 95.3188 40.8546 96.0278 41.193C96.7368 41.5153 97.3814 42.0068 97.9615 42.6675L100.475 40.347C99.6697 39.364 98.6706 38.6228 97.4781 38.1232C96.3018 37.6076 94.9804 37.3497 93.514 37.3497C92.1926 37.3497 90.9759 37.5673 89.864 38.0024C88.7522 38.4213 87.7772 39.0256 86.9393 39.8152C86.1174 40.6048 85.4729 41.5314 85.0055 42.595C84.5543 43.6585 84.3287 44.8268 84.3287 46.0999C84.3287 47.3729 84.5543 48.5412 85.0055 49.6047C85.4729 50.6683 86.1174 51.5949 86.9393 52.3845C87.7611 53.1741 88.728 53.7864 89.8399 54.2215ZM106.271 40.8304V54.5599H110.138V40.8304H115.552V37.6398H100.88V40.8304H106.271ZM126.419 37.6398H122.552L115.01 54.5599H119.023L120.53 50.9342H128.374L129.876 54.5599H133.985L126.419 37.6398ZM127.142 47.9611L124.46 41.4855L121.767 47.9611H127.142ZM143.311 37.6398H135.987V54.5599H139.903V49.8948H143.311C144.826 49.8948 146.131 49.6531 147.227 49.1697C148.322 48.6701 149.169 47.9611 149.765 47.0426C150.361 46.124 150.659 45.0363 150.659 43.7794C150.659 42.5063 150.361 41.4106 149.765 40.492C149.169 39.5735 148.322 38.8725 147.227 38.3891C146.131 37.8896 144.826 37.6398 143.311 37.6398ZM139.903 46.7042H143.093C144.302 46.7042 145.204 46.4463 145.801 45.9307C146.397 45.415 146.695 44.6979 146.695 43.7794C146.695 42.8447 146.397 42.1196 145.801 41.6039C145.204 41.0883 144.302 40.8304 143.093 40.8304H139.903V46.7042ZM156.178 40.8304V54.5599H160.046V40.8304H165.46V37.6398H150.788V40.8304H156.178ZM54.4193 0.127087C46.7097 1.25315 36.2127 7.05864 26.5444 15.5667C25.6278 16.3799 24.9246 16.8929 24.6233 16.9805C24.1964 17.1056 23.8574 17.0556 21.5847 16.5301C18.7093 15.8545 18.2196 15.8419 16.9012 16.405C16.2608 16.6927 15.3066 17.5936 8.18716 24.6878C3.79248 29.0669 0.126051 32.808 0.0632694 33.0082C-0.0999618 33.4211 0.0632694 33.8965 0.427401 34.0967C0.565519 34.1718 3.37812 34.6597 6.66786 35.1727C11.0374 35.8609 12.8204 36.0861 13.2348 36.036C14.0509 35.9109 14.9927 35.5355 15.6958 35.0351C16.0348 34.7974 16.4241 34.5972 16.5622 34.5972C16.7254 34.5972 19.0358 36.8243 23.1165 40.8781C28.0009 45.7452 29.4323 47.2341 29.4323 47.4718C29.4323 47.647 29.2314 48.0599 28.9929 48.4102C28.4027 49.261 28.0512 50.3245 28.0512 51.2129C28.0512 52.0637 29.7337 62.8864 29.9471 63.4119C30.1104 63.7998 30.4117 63.9999 30.8386 63.9999C31.0521 63.9999 33.2118 61.9105 39.2639 55.8923C39.4818 55.6755 39.6942 55.4641 39.9013 55.2581C46.8727 48.3218 47.8238 47.3756 48.0307 46.2877C48.0634 46.1159 48.0776 45.9405 48.0939 45.7374C48.097 45.6993 48.1001 45.6603 48.1035 45.6201C48.1663 44.9069 48.0909 44.444 47.6515 42.6423C47.3752 41.4662 47.1367 40.3026 47.1367 40.0523C47.1367 39.6645 47.3124 39.4142 48.6183 37.9503C55.9888 29.68 61.4382 20.3837 63.4096 12.714C64.4141 8.8103 64.3889 5.89504 63.3217 3.59286C62.5432 1.91628 61.1494 0.76519 59.2534 0.252205C58.2113 -0.023056 55.8758 -0.0856094 54.4193 0.127087ZM49.9367 9.51096C51.0919 9.74868 52.1968 10.3618 53.1009 11.2626C56.7799 14.9286 55.0094 21.222 49.9493 22.4106C48.3169 22.7985 46.2452 22.4607 44.8891 21.5974C41.976 19.7331 40.959 16.1047 42.4908 13.0143C43.8595 10.2241 46.7976 8.84783 49.9367 9.51096ZM11.9417 44.2939C12.9336 42.7924 14.3022 41.0533 14.9928 40.4277C15.5579 39.9272 15.6206 39.9022 16.0978 40.1525C16.6754 40.4652 24.1338 48.0099 24.2217 48.3852C24.3347 48.8357 24.2719 48.9232 23.0288 50.0618C20.5176 52.3765 19.2117 53.1147 14.3525 55.029C12.5193 55.7547 10.1085 56.7807 9.0035 57.2936C6.91916 58.2696 6.52992 58.3822 6.40436 58.0444C5.81421 56.5054 8.79004 49.0984 11.9417 44.2939Z" fill="black"/>
</svg>
